<svg width="32" height="32" viewBox="0 0 32 32" fill="none" xmlns="http://www.w3.org/2000/svg">
<path d="M27 0H4.5C3.30653 0 2.16193 0.474106 1.31802 1.31802C0.474106 2.16193 0 3.30653 0 4.5L0 27C0 28.1935 0.474106 29.3381 1.31802 30.182C2.16193 31.0259 3.30653 31.5 4.5 31.5H27C28.1935 31.5 29.3381 31.0259 30.182 30.182C31.0259 29.3381 31.5 28.1935 31.5 27V4.5C31.5 3.30653 31.0259 2.16193 30.182 1.31802C29.3381 0.474106 28.1935 0 27 0ZM9 24.75C8.55499 24.75 8.11998 24.618 7.74997 24.3708C7.37996 24.1236 7.09157 23.7722 6.92127 23.361C6.75097 22.9499 6.70642 22.4975 6.79323 22.061C6.88005 21.6246 7.09434 21.2237 7.40901 20.909C7.72368 20.5943 8.12459 20.3801 8.56105 20.2932C8.9975 20.2064 9.4499 20.251 9.86104 20.4213C10.2722 20.5916 10.6236 20.88 10.8708 21.25C11.118 21.62 11.25 22.055 11.25 22.5C11.25 23.0967 11.0129 23.669 10.591 24.091C10.169 24.5129 9.59674 24.75 9 24.75ZM9 11.25C8.55499 11.25 8.11998 11.118 7.74997 10.8708C7.37996 10.6236 7.09157 10.2722 6.92127 9.86104C6.75097 9.4499 6.70642 8.9975 6.79323 8.56105C6.88005 8.12459 7.09434 7.72368 7.40901 7.40901C7.72368 7.09434 8.12459 6.88005 8.56105 6.79323C8.9975 6.70642 9.4499 6.75097 9.86104 6.92127C10.2722 7.09157 10.6236 7.37996 10.8708 7.74997C11.118 8.11998 11.25 8.55499 11.25 9C11.25 9.59674 11.0129 10.169 10.591 10.591C10.169 11.0129 9.59674 11.25 9 11.25ZM22.5 24.75C22.055 24.75 21.62 24.618 21.25 24.3708C20.88 24.1236 20.5916 23.7722 20.4213 23.361C20.251 22.9499 20.2064 22.4975 20.2932 22.061C20.3801 21.6246 20.5943 21.2237 20.909 20.909C21.2237 20.5943 21.6246 20.3801 22.061 20.2932C22.4975 20.2064 22.9499 20.251 23.361 20.4213C23.7722 20.5916 24.1236 20.88 24.3708 21.25C24.618 21.62 24.75 22.055 24.75 22.5C24.75 23.0967 24.5129 23.669 24.091 24.091C23.669 24.5129 23.0967 24.75 22.5 24.75ZM22.5 11.25C22.055 11.25 21.62 11.118 21.25 10.8708C20.88 10.6236 20.5916 10.2722 20.4213 9.86104C20.251 9.4499 20.2064 8.9975 20.2932 8.56105C20.3801 8.12459 20.5943 7.72368 20.909 7.40901C21.2237 7.09434 21.6246 6.88005 22.061 6.79323C22.4975 6.70642 22.9499 6.75097 23.361 6.92127C23.7722 7.09157 24.1236 7.37996 24.3708 7.74997C24.618 8.11998 24.75 8.55499 24.75 9C24.75 9.59674 24.5129 10.169 24.091 10.591C23.669 11.0129 23.0967 11.25 22.5 11.25Z" fill="#969697"/>
</svg>
