<svg width="24" height="35" viewBox="0 0 24 35" fill="none" xmlns="http://www.w3.org/2000/svg">
<path d="M16.17 13.5001H7.17C6.77218 13.5001 6.39064 13.6581 6.10934 13.9394C5.82804 14.2207 5.67 14.6022 5.67 15.0001V33.0001C5.67 33.3979 5.82804 33.7794 6.10934 34.0607C6.39064 34.342 6.77218 34.5001 7.17 34.5001H16.17C16.5678 34.5001 16.9494 34.342 17.2307 34.0607C17.512 33.7794 17.67 33.3979 17.67 33.0001V15.0001C17.67 14.6022 17.512 14.2207 17.2307 13.9394C16.9494 13.6581 16.5678 13.5001 16.17 13.5001ZM11.67 22.5001C11.0767 22.5001 10.4966 22.3241 10.0033 21.9945C9.50994 21.6648 9.12542 21.1963 8.89836 20.6481C8.6713 20.0999 8.61189 19.4967 8.72764 18.9148C8.8434 18.3329 9.12912 17.7983 9.54868 17.3787C9.96824 16.9592 10.5028 16.6735 11.0847 16.5577C11.6667 16.442 12.2699 16.5014 12.8181 16.7284C13.3662 16.9555 13.8348 17.34 14.1644 17.8334C14.4941 18.3267 14.67 18.9067 14.67 19.5001C14.6676 20.295 14.3508 21.0567 13.7887 21.6188C13.2266 22.1809 12.4649 22.4977 11.67 22.5001ZM4.245 9.07507L6.36 11.1901C7.77121 9.78726 9.68018 8.99988 11.67 8.99988C13.6598 8.99988 15.5688 9.78726 16.98 11.1901L19.095 9.07507C18.12 8.09994 16.9624 7.32642 15.6884 6.79868C14.4144 6.27094 13.049 5.99931 11.67 5.99931C10.291 5.99931 8.92557 6.27094 7.65158 6.79868C6.37759 7.32642 5.22003 8.09994 4.245 9.07507ZM11.67 6.99793e-05C9.5025 -0.00348893 7.35567 0.421394 5.35292 1.25029C3.35017 2.0792 1.53101 3.29577 0 4.83007L2.115 6.94507C4.6501 4.41479 8.08634 2.99495 11.6681 2.99776C15.2499 3.00058 18.6839 4.42582 21.215 6.96007L23.33 4.84507C21.8051 3.30433 19.9888 2.08246 17.987 1.25065C15.9851 0.418842 13.8378 -0.00627447 11.67 6.99793e-05Z" fill="#969697"/>
</svg>
