<svg width="28" height="28" viewBox="0 0 28 28" fill="none" xmlns="http://www.w3.org/2000/svg">
<path d="M19.595 0.5H8.4L0.5 8.4V19.59L8.4 27.5H19.59L27.5 19.595V8.4L19.595 0.5ZM14 21.95C13.6143 21.95 13.2373 21.8356 12.9166 21.6214C12.596 21.4071 12.346 21.1025 12.1984 20.7462C12.0508 20.3899 12.0122 19.9978 12.0875 19.6196C12.1627 19.2413 12.3484 18.8939 12.6211 18.6211C12.8939 18.3484 13.2413 18.1627 13.6196 18.0875C13.9978 18.0122 14.3899 18.0508 14.7462 18.1984C15.1025 18.346 15.4071 18.596 15.6214 18.9166C15.8356 19.2373 15.95 19.6143 15.95 20C15.9505 20.2562 15.9004 20.51 15.8026 20.7469C15.7048 20.9837 15.5612 21.1989 15.38 21.38C15.1989 21.5612 14.9837 21.7048 14.7469 21.8026C14.51 21.9004 14.2562 21.9505 14 21.95ZM15.5 15.5H12.5V6.5H15.5V15.5Z" fill="#969697"/>
</svg>
