<svg width="33" height="29" viewBox="0 0 33 29" fill="none" xmlns="http://www.w3.org/2000/svg">
<path d="M22.532 12.714C25.014 12.714 27.003 9.986 27.003 6.607C27.003 3.228 25.014 0.5 22.532 0.5C20.05 0.5 18.046 3.228 18.046 6.607C18.046 9.986 20.049 12.714 22.532 12.714ZM10.568 12.714C13.05 12.714 15.039 9.986 15.039 6.607C15.039 3.228 13.051 0.5 10.568 0.5C8.08498 0.5 6.08198 3.228 6.08198 6.607C6.08198 9.986 8.08598 12.714 10.568 12.714ZM10.568 16.785C7.08398 16.786 0.0999756 19.167 0.0999756 23.911V29H21.036V23.911C21.036 19.167 14.053 16.786 10.568 16.786V16.785ZM22.532 16.785C22.0468 16.791 21.5624 16.8244 21.081 16.885C22.0269 17.7914 22.7765 18.8825 23.2833 20.0906C23.79 21.2987 24.0432 22.598 24.027 23.908V29H33V23.911C33 19.167 26.016 16.786 22.532 16.786V16.785Z" fill="#969697"/>
</svg>
