<svg width="59" height="46" viewBox="0 0 59 46" fill="none" xmlns="http://www.w3.org/2000/svg">
<path d="M28.718 11.933L9.83399 27.527V44.356C9.83372 44.5715 9.87591 44.7849 9.95814 44.9841C10.0404 45.1833 10.161 45.3644 10.3132 45.5169C10.4654 45.6695 10.6462 45.7906 10.8452 45.8733C11.0442 45.956 11.2575 45.9987 11.473 45.999L22.95 45.969C23.3838 45.9664 23.799 45.792 24.1046 45.4841C24.4102 45.1762 24.5815 44.7598 24.581 44.326V34.498C24.5807 34.2825 24.6229 34.0691 24.7051 33.8699C24.7874 33.6707 24.908 33.4896 25.0602 33.3371C25.2124 33.1845 25.3932 33.0634 25.5922 32.9807C25.7912 32.898 26.0045 32.8553 26.22 32.855H32.775C32.9905 32.8553 33.2038 32.898 33.4028 32.9807C33.6018 33.0634 33.7826 33.1845 33.9348 33.3371C34.087 33.4896 34.2076 33.6707 34.2898 33.8699C34.3721 34.0691 34.4142 34.2825 34.414 34.498V44.319C34.4131 44.5349 34.4548 44.7489 34.5367 44.9487C34.6186 45.1484 34.7392 45.3301 34.8914 45.4832C35.0437 45.6363 35.2247 45.7578 35.424 45.8408C35.6233 45.9239 35.8371 45.9667 36.053 45.967L47.526 45.999C47.7415 45.9987 47.9548 45.956 48.1538 45.8733C48.3528 45.7906 48.5336 45.6695 48.6858 45.5169C48.838 45.3644 48.9586 45.1833 49.0408 44.9841C49.1231 44.7849 49.1653 44.5715 49.165 44.356V27.515L30.285 11.933C30.0632 11.7537 29.7867 11.6558 29.5015 11.6558C29.2163 11.6558 28.9397 11.7537 28.718 11.933ZM58.547 22.533L49.984 15.457V1.232C49.9843 0.905692 49.8549 0.592628 49.6245 0.361612C49.394 0.130595 49.0813 0.000530044 48.755 0H43.019C42.6927 0.000530044 42.3799 0.130595 42.1495 0.361612C41.919 0.592628 41.7897 0.905692 41.79 1.232V8.688L32.62 1.124C31.7408 0.397942 30.6362 0.000784636 29.496 0.000784636C28.3558 0.000784636 27.2512 0.397942 26.372 1.124L0.445988 22.532C0.194558 22.7406 0.0361007 23.0404 0.00535766 23.3656C-0.0253853 23.6908 0.0740953 24.015 0.281988 24.267L2.89399 27.446C2.99648 27.5711 3.12269 27.6747 3.26535 27.7508C3.40801 27.8269 3.56431 27.8741 3.72527 27.8896C3.88622 27.9051 4.04866 27.8887 4.20324 27.8412C4.35782 27.7937 4.50149 27.7162 4.62599 27.613L28.718 7.713C28.9397 7.53367 29.2163 7.43584 29.5015 7.43584C29.7867 7.43584 30.0632 7.53367 30.285 7.713L54.378 27.613C54.5023 27.7162 54.6457 27.7938 54.8001 27.8415C54.9545 27.8891 55.1167 27.9058 55.2775 27.8905C55.4384 27.8753 55.5946 27.8284 55.7373 27.7527C55.88 27.6769 56.0063 27.5737 56.109 27.449L58.721 24.266C58.824 24.1405 58.9012 23.9959 58.9482 23.8405C58.9952 23.6851 59.0111 23.5219 58.9949 23.3604C58.9787 23.1988 58.9308 23.0421 58.854 22.8991C58.7771 22.7561 58.6728 22.6296 58.547 22.527V22.533Z" fill="white"/>
</svg>
