<svg width="39" height="46" viewBox="0 0 39 46" fill="none" xmlns="http://www.w3.org/2000/svg">
<path d="M19.5 45.496C20.764 45.5194 21.9859 45.042 22.8992 44.1678C23.8125 43.2937 24.343 42.0938 24.375 40.83H14.625C14.6531 42.0951 15.1824 43.2973 16.0965 44.1723C17.0107 45.0473 18.2349 45.5234 19.5 45.496ZM34.125 31.496V19.832C34.125 12.669 30.125 6.67304 23.156 5.08604V3.50004C23.112 2.55999 22.7076 1.67301 22.0268 1.02331C21.346 0.373603 20.4411 0.0111084 19.5 0.0111084C18.5589 0.0111084 17.654 0.373603 16.9732 1.02331C16.2924 1.67301 15.888 2.55999 15.844 3.50004V5.08604C8.844 6.67304 4.875 12.645 4.875 19.832V31.498L0 36.164V38.497H39V36.164L34.125 31.496Z" fill="white"/>
</svg>
