<svg width="31" height="31" viewBox="0 0 31 31" fill="none" xmlns="http://www.w3.org/2000/svg">
<path d="M4.77295 2H25.7729C26.5686 2 27.3317 2.31607 27.8943 2.87868C28.4569 3.44129 28.7729 4.20435 28.7729 5V26C28.7729 26.7956 28.4569 27.5587 27.8943 28.1213C27.3317 28.6839 26.5686 29 25.7729 29H4.77295C3.9773 29 3.21424 28.6839 2.65163 28.1213C2.08902 27.5587 1.77295 26.7956 1.77295 26V5C1.77295 4.20435 2.08902 3.44129 2.65163 2.87868C3.21424 2.31607 3.9773 2 4.77295 2V2Z" stroke="black" stroke-width="3" stroke-linecap="round" stroke-linejoin="round"/>
<path d="M12.273 10.25C12.273 10.695 12.141 11.13 11.8938 11.5C11.6465 11.87 11.2951 12.1584 10.884 12.3287C10.4729 12.499 10.0205 12.5436 9.584 12.4568C9.14754 12.37 8.74663 12.1557 8.43196 11.841C8.11729 11.5263 7.903 11.1254 7.81618 10.689C7.72937 10.2525 7.77392 9.8001 7.94422 9.38896C8.11452 8.97783 8.40291 8.62643 8.77292 8.37919C9.14293 8.13196 9.57794 8 10.023 8C10.6197 8 11.192 8.23705 11.6139 8.65901C12.0359 9.08097 12.273 9.65326 12.273 10.25V10.25Z" stroke="black" stroke-width="3" stroke-linecap="round" stroke-linejoin="round"/>
<path d="M28.7729 20L21.2729 12.5L4.77295 29" stroke="black" stroke-width="3" stroke-linecap="round" stroke-linejoin="round"/>
</svg>
