<svg width="34" height="34" viewBox="0 0 34 34" fill="none" xmlns="http://www.w3.org/2000/svg">
<path d="M15.8179 5.091H5.31787C4.52222 5.091 3.75916 5.40707 3.19655 5.96968C2.63394 6.53229 2.31787 7.29535 2.31787 8.091V29.091C2.31787 29.8867 2.63394 30.6497 3.19655 31.2123C3.75916 31.7749 4.52222 32.091 5.31787 32.091H26.3179C27.1135 32.091 27.8766 31.7749 28.4392 31.2123C29.0018 30.6497 29.3179 29.8867 29.3179 29.091V18.591" stroke="black" stroke-width="3" stroke-linecap="round" stroke-linejoin="round"/>
<path d="M27.0679 2.841C27.6653 2.24771 28.4736 1.9154 29.3156 1.91687C30.1576 1.91835 30.9646 2.25348 31.56 2.84886C32.1554 3.44423 32.4905 4.25131 32.492 5.0933C32.4935 5.93529 32.1612 6.74354 31.5679 7.341L17.3179 21.591L11.3179 23.091L12.8179 17.091L27.0679 2.841Z" stroke="black" stroke-width="3" stroke-linecap="round" stroke-linejoin="round"/>
</svg>
