<svg width="45" height="36" viewBox="0 0 45 36" fill="none" xmlns="http://www.w3.org/2000/svg">
<path d="M15.75 18C17.53 18 19.2701 17.4722 20.7501 16.4832C22.2302 15.4943 23.3837 14.0887 24.0649 12.4442C24.7461 10.7996 24.9243 8.99002 24.5771 7.24419C24.2298 5.49836 23.3726 3.89472 22.114 2.63604C20.8553 1.37737 19.2516 0.520203 17.5058 0.172937C15.76 -0.17433 13.9504 0.00389957 12.3058 0.685088C10.6613 1.36628 9.25571 2.51983 8.26677 3.99987C7.27784 5.47991 6.75 7.21997 6.75 9C6.75 11.387 7.69821 13.6761 9.38604 15.364C11.0739 17.0518 13.3631 18 15.75 18ZM22.05 20.25H20.876C19.2688 20.9912 17.5199 21.3751 15.75 21.3751C13.9801 21.3751 12.2312 20.9912 10.624 20.25H9.45C6.94387 20.2505 4.54053 21.2463 2.76843 23.0184C0.996323 24.7905 0.00053023 27.1939 0 29.7L0 32.625C0.000265075 33.52 0.35593 34.3783 0.988807 35.0112C1.62169 35.6441 2.47998 35.9997 3.375 36H22.7C22.5264 35.5203 22.4639 35.0074 22.517 34.5L23 30.22L23.084 29.44L23.639 28.885L29.074 23.45C28.1983 22.4476 27.1187 21.6436 25.9075 21.0917C24.6962 20.5399 23.3811 20.2529 22.05 20.25ZM25.235 30.466L24.757 34.755C24.7382 34.922 24.7573 35.0911 24.8128 35.2497C24.8684 35.4083 24.9589 35.5524 25.0777 35.6713C25.1966 35.7901 25.3407 35.8806 25.4993 35.9362C25.6579 35.9917 25.827 36.0108 25.994 35.992L30.276 35.514L39.976 25.814L34.935 20.773L25.235 30.462V30.466ZM44.508 18.907L41.843 16.242C41.5272 15.9278 41.0999 15.7514 40.6545 15.7514C40.2091 15.7514 39.7818 15.9278 39.466 16.242L36.809 18.9L36.521 19.188L41.569 24.229L44.508 21.29C44.8224 20.9729 44.9988 20.5445 44.9988 20.098C44.9988 19.6515 44.8224 19.2231 44.508 18.906V18.907Z" fill="black"/>
</svg>
