<svg width="43" height="44" viewBox="0 0 43 44" fill="none" xmlns="http://www.w3.org/2000/svg">
<path d="M22.6646 18.3333C21.1954 14.0617 17.2179 11 12.5417 11C6.61127 11 1.79169 15.9317 1.79169 22C1.79169 28.0683 6.61127 33 12.5417 33C17.2179 33 21.1954 29.9383 22.6646 25.6667H30.4584V33H37.625V25.6667H41.2084V18.3333H22.6646ZM12.5417 25.6667C10.5709 25.6667 8.95835 24.0167 8.95835 22C8.95835 19.9833 10.5709 18.3333 12.5417 18.3333C14.5125 18.3333 16.125 19.9833 16.125 22C16.125 24.0167 14.5125 25.6667 12.5417 25.6667Z" fill="black"/>
</svg>
