<svg width="32" height="32" viewBox="0 0 32 32" fill="none" xmlns="http://www.w3.org/2000/svg">
<path d="M29.25 12.375H19.125V2.25C19.125 1.65326 18.8879 1.08097 18.466 0.65901C18.044 0.237053 17.4717 0 16.875 0H14.625C14.0283 0 13.456 0.237053 13.034 0.65901C12.6121 1.08097 12.375 1.65326 12.375 2.25V12.375H2.25C1.65326 12.375 1.08097 12.6121 0.65901 13.034C0.237053 13.456 0 14.0283 0 14.625L0 16.875C0 17.4717 0.237053 18.044 0.65901 18.466C1.08097 18.8879 1.65326 19.125 2.25 19.125H12.375V29.25C12.375 29.8467 12.6121 30.419 13.034 30.841C13.456 31.2629 14.0283 31.5 14.625 31.5H16.875C17.4717 31.5 18.044 31.2629 18.466 30.841C18.8879 30.419 19.125 29.8467 19.125 29.25V19.125H29.25C29.8467 19.125 30.419 18.8879 30.841 18.466C31.2629 18.044 31.5 17.4717 31.5 16.875V14.625C31.5 14.0283 31.2629 13.456 30.841 13.034C30.419 12.6121 29.8467 12.375 29.25 12.375Z" fill="#F8F7F7"/>
</svg>
