<svg width="25" height="25" viewBox="0 0 25 25" fill="none" xmlns="http://www.w3.org/2000/svg">
<path d="M21.3581 3.525C19.4884 1.65138 17.0517 0.448481 14.4274 0.103583C11.8031 -0.241315 9.13835 0.291139 6.84807 1.61805C4.5578 2.94496 2.77049 4.99187 1.76441 7.44011C0.758337 9.88835 0.589941 12.6005 1.28544 15.1544C1.98095 17.7083 3.50132 19.9606 5.60987 21.5606C7.71841 23.1606 10.2968 24.0186 12.9436 24.001C15.5905 23.9834 18.1572 23.0912 20.2443 21.4632C22.3314 19.8352 23.8216 17.5629 24.4831 15H21.3631C20.813 16.5558 19.8457 17.9305 18.5671 18.9737C17.2884 20.0168 15.7475 20.6884 14.1129 20.9148C12.4783 21.1413 10.8129 20.914 9.29881 20.2578C7.78469 19.6016 6.48013 18.5417 5.52778 17.194C4.57542 15.8463 4.01193 14.2627 3.89891 12.6164C3.78588 10.9701 4.12768 9.32435 4.88693 7.85917C5.64618 6.394 6.79365 5.16577 8.20389 4.30878C9.61413 3.45179 11.2328 2.99903 12.8831 3C14.0627 3.00188 15.2301 3.23898 16.317 3.69743C17.4039 4.15588 18.3884 4.82648 19.2131 5.67L14.3831 10.5H24.8831V0L21.3581 3.525Z" fill="#FEFDFD"/>
</svg>
