<svg width="37" height="37" viewBox="0 0 37 37" fill="none" xmlns="http://www.w3.org/2000/svg">
<path d="M36.108 31.625L29.098 24.615C28.9404 24.4578 28.7532 24.3335 28.5472 24.249C28.3412 24.1646 28.1206 24.1217 27.898 24.123H26.756C29.0457 21.1889 30.13 17.492 29.7879 13.786C29.4458 10.0801 27.703 6.64412 24.9149 4.17881C22.1267 1.7135 18.5033 0.404486 14.7833 0.518668C11.0633 0.63285 7.52695 2.16163 4.89529 4.7933C2.26362 7.42496 0.734839 10.9613 0.620657 14.6813C0.506475 18.4013 1.81549 22.0248 4.2808 24.8129C6.74611 27.601 10.1821 29.3438 13.888 29.6859C17.594 30.028 21.2909 28.9437 24.225 26.654V27.798C24.2237 28.0206 24.2666 28.2413 24.351 28.4472C24.4354 28.6532 24.5598 28.8404 24.717 28.998L31.727 36.008C31.8832 36.1651 32.069 36.2898 32.2735 36.3749C32.4781 36.4599 32.6975 36.5037 32.919 36.5037C33.1406 36.5037 33.3599 36.4599 33.5645 36.3749C33.7691 36.2898 33.9548 36.1651 34.111 36.008L36.101 34.018C36.4167 33.7007 36.5946 33.2716 36.5959 32.824C36.5972 32.3763 36.4219 31.9462 36.108 31.627V31.625ZM15.225 24.125C13.445 24.125 11.7049 23.5972 10.2249 22.6082C8.74483 21.6193 7.59128 20.2137 6.91009 18.5692C6.2289 16.9246 6.05067 15.115 6.39794 13.3692C6.7452 11.6234 7.60237 10.0197 8.86104 8.76105C10.1197 7.50238 11.7234 6.64521 13.4692 6.29795C15.215 5.95068 17.0246 6.12891 18.6692 6.8101C20.3137 7.49129 21.7193 8.64484 22.7082 10.1249C23.6972 11.6049 24.225 13.345 24.225 15.125C24.2254 16.3069 23.9929 17.4773 23.5407 18.5693C23.0885 19.6613 22.4256 20.6535 21.5897 21.4891C20.7539 22.3248 19.7616 22.9875 18.6695 23.4395C17.5774 23.8914 16.4069 24.1237 15.225 24.123V24.125Z" fill="#969697"/>
</svg>
