<svg width="27" height="28" viewBox="0 0 27 28" fill="none" xmlns="http://www.w3.org/2000/svg">
<path d="M26.145 0.563037L0.334016 11.813C0.231949 11.8623 0.146162 11.9398 0.0868437 12.0363C0.0275255 12.1329 -0.00283099 12.2445 -0.00061967 12.3578C0.00159165 12.4711 0.036278 12.5814 0.0993187 12.6755C0.162359 12.7697 0.251106 12.8438 0.355016 12.889L7.33702 16.834C7.53859 16.9477 7.77028 16.9965 8.00057 16.9737C8.23085 16.951 8.44854 16.8579 8.62402 16.707L22.391 4.83804C22.482 4.76104 22.7 4.61304 22.785 4.69704C22.87 4.78104 22.736 4.99704 22.658 5.09104L10.747 18.507C10.5853 18.6884 10.4868 18.9175 10.4664 19.1597C10.446 19.4019 10.5048 19.6441 10.634 19.85L15.196 27.17C15.246 27.2698 15.323 27.3535 15.4183 27.4115C15.5136 27.4695 15.6233 27.4994 15.7349 27.498C15.8465 27.4965 15.9553 27.4637 16.0491 27.4032C16.1429 27.3427 16.2177 27.2571 16.265 27.156L26.94 1.34404C26.9911 1.23329 27.0067 1.10947 26.9847 0.989514C26.9628 0.869555 26.9043 0.759307 26.8173 0.673842C26.7303 0.588377 26.619 0.531865 26.4987 0.512032C26.3784 0.492199 26.2548 0.510012 26.145 0.563037Z" fill="white"/>
</svg>
